<svg
  xmlns="http://www.w3.org/2000/svg"
  viewBox="0 0 1200 1040"
  aria-hidden="true"
>
  <rect x="0" y="0" width="1200" height="1040" fill="#eef0f2" />
  <rect x="70" y="55" width="1060" height="900" rx="22" fill="#d8d1c2" />

  <rect x="288" y="150" width="110" height="460" rx="16" fill="#bbbcc0" />
  <rect x="513" y="150" width="110" height="460" rx="16" fill="#bbbcc0" />
  <rect x="743" y="150" width="110" height="460" rx="16" fill="#bbbcc0" />
  <rect x="975" y="150" width="110" height="460" rx="16" fill="#bbbcc0" />

  <text
    x="200"
    y="130"
    fill="#737983"
    font-size="14"
    font-weight="700"
    letter-spacing="0.04em"
  >
    Zone A
  </text>
  <text
    x="440"
    y="130"
    fill="#737983"
    font-size="14"
    font-weight="700"
    letter-spacing="0.04em"
  >
    Zone B
  </text>
  <text
    x="670"
    y="130"
    fill="#737983"
    font-size="14"
    font-weight="700"
    letter-spacing="0.04em"
  >
    Zone C
  </text>
  <text
    x="900"
    y="130"
    fill="#737983"
    font-size="14"
    font-weight="700"
    letter-spacing="0.04em"
  >
    Zone D
  </text>

  <g>
    <rect
      x="80"
      y="78"
      width="110"
      height="44"
      rx="12"
      fill="#fff700"
      stroke="#64748b"
      stroke-width="1.4"
    />
    <text
      x="135"
      y="105"
      text-anchor="middle"
      font-size="16"
      font-weight="700"
      fill="#334155"
    >
      Entry/Exit
    </text>
  </g>

  <g transform="translate(0 40)" aria-hidden="true">
    <rect
      x="326"
      y="650"
      width="558"
      height="232"
      rx="18"
      fill="none"
      stroke="#f8fafc"
      stroke-width="4"
      opacity="0.9"
    />

    <rect x="344" y="667" width="72" height="48" rx="6" fill="none" stroke="#f8fafc" stroke-width="3" />
    <rect x="454" y="667" width="72" height="48" rx="6" fill="none" stroke="#f8fafc" stroke-width="3" />
    <rect x="564" y="667" width="72" height="48" rx="6" fill="none" stroke="#f8fafc" stroke-width="3" />
    <rect x="674" y="667" width="72" height="48" rx="6" fill="none" stroke="#f8fafc" stroke-width="3" />
    <rect x="784" y="667" width="72" height="48" rx="6" fill="none" stroke="#f8fafc" stroke-width="3" />

    <rect x="344" y="789" width="72" height="48" rx="6" fill="none" stroke="#f8fafc" stroke-width="3" />
    <rect x="454" y="789" width="72" height="48" rx="6" fill="none" stroke="#f8fafc" stroke-width="3" />
    <rect x="564" y="789" width="72" height="48" rx="6" fill="none" stroke="#f8fafc" stroke-width="3" />
    <rect x="674" y="789" width="72" height="48" rx="6" fill="none" stroke="#f8fafc" stroke-width="3" />
    <rect x="784" y="789" width="72" height="48" rx="6" fill="none" stroke="#f8fafc" stroke-width="3" />

    <line
      x1="344"
      y1="752"
      x2="856"
      y2="752"
      stroke="#f8fafc"
      stroke-width="3"
      stroke-dasharray="24 14"
      opacity="0.95"
    />
  </g>
</svg>
